<svg xmlns="http://www.w3.org/2000/svg" version="1.1" xmlns:xlink="http://www.w3.org/1999/xlink" xmlns:svgjs="http://svgjs.com/svgjs" width="1440" height="560" preserveAspectRatio="none" viewBox="0 0 1440 560"><g mask="url(&quot;#SvgjsMask1094&quot;)" fill="none"><rect width="1440" height="560" x="0" y="0" fill="url(#SvgjsLinearGradient1095)"></rect><path d="M1440 0L1018.63 0L1440 196.53z" fill="rgba(255, 255, 255, .1)"></path><path d="M1018.63 0L1440 196.53L1440 201.22L582.41 0z" fill="rgba(255, 255, 255, .075)"></path><path d="M582.41 0L1440 201.22L1440 271.76L283.85999999999996 0z" fill="rgba(255, 255, 255, .05)"></path><path d="M283.8599999999999 0L1440 271.76L1440 462.65999999999997L149.7299999999999 0z" fill="rgba(255, 255, 255, .025)"></path><path d="M0 560L631.14 560L0 542.52z" fill="rgba(0, 0, 0, .1)"></path><path d="M0 542.52L631.14 560L695.3299999999999 560L0 385.78z" fill="rgba(0, 0, 0, .075)"></path><path d="M0 385.78L695.3299999999999 560L969.05 560L0 306.59z" fill="rgba(0, 0, 0, .05)"></path><path d="M0 306.59000000000003L969.05 560L1163.94 560L0 248.40000000000003z" fill="rgba(0, 0, 0, .025)"></path></g><defs><mask id="SvgjsMask1094"><rect width="1440" height="560" fill="#ffffff"></rect></mask><linearGradient x1="15.28%" y1="-39.29%" x2="84.72%" y2="139.29%" gradientUnits="userSpaceOnUse" id="SvgjsLinearGradient1095"><stop stop-color="#0e2a47" offset="0"></stop><stop stop-color="rgba(55, 86, 126, 1)" offset="1"></stop></linearGradient></defs></svg>